<?xml version="1.0" encoding="utf-8"?>
<svg viewBox="0 0 1920 1080" fill="none" xmlns="http://www.w3.org/2000/svg">
  <rect x="0.5" y="0.5" width="1919" height="1079" fill="white"/>
  <rect x="258" y="487" width="388" height="106" rx="50" fill="#D9D9D9"/>
  <rect x="698" y="487" width="768" height="106" rx="50" fill="#D9D9D9"/>
  <rect x="1515" y="487" width="147" height="106" rx="50" fill="#D9D9D9"/>
  <path d="M1590.51 555L1588.32 552.841L1597.32 543.835H1574V540.71H1597.32L1588.32 531.733L1590.51 529.545L1603.23 542.273L1590.51 555Z" fill="black"/>
  <path d="M767.932 535H764.409C764.201 533.987 763.836 533.097 763.315 532.33C762.804 531.562 762.179 530.919 761.44 530.398C760.711 529.867 759.902 529.47 759.011 529.205C758.121 528.939 757.193 528.807 756.227 528.807C754.466 528.807 752.87 529.252 751.44 530.142C750.02 531.032 748.888 532.344 748.045 534.077C747.212 535.81 746.795 537.936 746.795 540.455C746.795 542.973 747.212 545.099 748.045 546.832C748.888 548.565 750.02 549.877 751.44 550.767C752.87 551.657 754.466 552.102 756.227 552.102C757.193 552.102 758.121 551.97 759.011 551.705C759.902 551.439 760.711 551.046 761.44 550.526C762.179 549.995 762.804 549.347 763.315 548.58C763.836 547.803 764.201 546.913 764.409 545.909H767.932C767.667 547.396 767.184 548.726 766.483 549.901C765.782 551.075 764.911 552.074 763.869 552.898C762.828 553.712 761.658 554.332 760.361 554.759C759.073 555.185 757.695 555.398 756.227 555.398C753.746 555.398 751.54 554.792 749.608 553.58C747.676 552.367 746.156 550.644 745.048 548.409C743.94 546.174 743.386 543.523 743.386 540.455C743.386 537.386 743.94 534.735 745.048 532.5C746.156 530.265 747.676 528.542 749.608 527.33C751.54 526.117 753.746 525.511 756.227 525.511C757.695 525.511 759.073 525.724 760.361 526.151C761.658 526.577 762.828 527.202 763.869 528.026C764.911 528.84 765.782 529.834 766.483 531.009C767.184 532.173 767.667 533.504 767.932 535ZM798.17 540.455C798.17 543.523 797.616 546.174 796.508 548.409C795.4 550.644 793.88 552.367 791.948 553.58C790.016 554.792 787.81 555.398 785.329 555.398C782.848 555.398 780.641 554.792 778.71 553.58C776.778 552.367 775.258 550.644 774.15 548.409C773.042 546.174 772.488 543.523 772.488 540.455C772.488 537.386 773.042 534.735 774.15 532.5C775.258 530.265 776.778 528.542 778.71 527.33C780.641 526.117 782.848 525.511 785.329 525.511C787.81 525.511 790.016 526.117 791.948 527.33C793.88 528.542 795.4 530.265 796.508 532.5C797.616 534.735 798.17 537.386 798.17 540.455ZM794.761 540.455C794.761 537.936 794.339 535.81 793.496 534.077C792.663 532.344 791.531 531.032 790.102 530.142C788.681 529.252 787.09 528.807 785.329 528.807C783.567 528.807 781.972 529.252 780.542 530.142C779.121 531.032 777.99 532.344 777.147 534.077C776.314 535.81 775.897 537.936 775.897 540.455C775.897 542.973 776.314 545.099 777.147 546.832C777.99 548.565 779.121 549.877 780.542 550.767C781.972 551.657 783.567 552.102 785.329 552.102C787.09 552.102 788.681 551.657 790.102 550.767C791.531 549.877 792.663 548.565 793.496 546.832C794.339 545.099 794.761 542.973 794.761 540.455ZM813.07 555H804.093V525.909H813.468C816.29 525.909 818.705 526.491 820.712 527.656C822.72 528.812 824.259 530.473 825.329 532.642C826.399 534.801 826.934 537.386 826.934 540.398C826.934 543.428 826.394 546.037 825.315 548.224C824.235 550.402 822.663 552.079 820.599 553.253C818.534 554.418 816.025 555 813.07 555ZM807.616 551.875H812.843C815.248 551.875 817.242 551.411 818.823 550.483C820.405 549.555 821.584 548.234 822.36 546.52C823.137 544.806 823.525 542.765 823.525 540.398C823.525 538.049 823.141 536.027 822.374 534.332C821.607 532.628 820.461 531.321 818.937 530.412C817.412 529.493 815.513 529.034 813.241 529.034H807.616V551.875ZM836.366 525.909V555H832.843V525.909H836.366ZM866.838 535H863.315C863.107 533.987 862.742 533.097 862.222 532.33C861.71 531.562 861.085 530.919 860.347 530.398C859.617 529.867 858.808 529.47 857.918 529.205C857.027 528.939 856.099 528.807 855.134 528.807C853.372 528.807 851.777 529.252 850.347 530.142C848.926 531.032 847.795 532.344 846.952 534.077C846.118 535.81 845.702 537.936 845.702 540.455C845.702 542.973 846.118 545.099 846.952 546.832C847.795 548.565 848.926 549.877 850.347 550.767C851.777 551.657 853.372 552.102 855.134 552.102C856.099 552.102 857.027 551.97 857.918 551.705C858.808 551.439 859.617 551.046 860.347 550.526C861.085 549.995 861.71 549.347 862.222 548.58C862.742 547.803 863.107 546.913 863.315 545.909H866.838C866.573 547.396 866.09 548.726 865.389 549.901C864.688 551.075 863.817 552.074 862.776 552.898C861.734 553.712 860.564 554.332 859.267 554.759C857.979 555.185 856.601 555.398 855.134 555.398C852.652 555.398 850.446 554.792 848.514 553.58C846.582 552.367 845.063 550.644 843.955 548.409C842.847 546.174 842.293 543.523 842.293 540.455C842.293 537.386 842.847 534.735 843.955 532.5C845.063 530.265 846.582 528.542 848.514 527.33C850.446 526.117 852.652 525.511 855.134 525.511C856.601 525.511 857.979 525.724 859.267 526.151C860.564 526.577 861.734 527.202 862.776 528.026C863.817 528.84 864.688 529.834 865.389 531.009C866.09 532.173 866.573 533.504 866.838 535ZM872.531 555V525.909H890.087V529.034H876.053V538.864H889.178V541.989H876.053V551.875H890.315V555H872.531Z" fill="black"/>
  <path d="M1284.36 1007.37H1279.93C1279.76 1006.42 1279.44 1005.59 1278.97 1004.87C1278.51 1004.15 1277.94 1003.54 1277.27 1003.04C1276.6 1002.54 1275.84 1002.16 1275.01 1001.9C1274.19 1001.64 1273.31 1001.52 1272.38 1001.52C1270.71 1001.52 1269.21 1001.94 1267.88 1002.78C1266.56 1003.62 1265.52 1004.86 1264.76 1006.49C1264 1008.12 1263.62 1010.11 1263.62 1012.45C1263.62 1014.82 1264 1016.82 1264.76 1018.45C1265.52 1020.08 1266.57 1021.31 1267.89 1022.14C1269.22 1022.98 1270.71 1023.39 1272.37 1023.39C1273.29 1023.39 1274.16 1023.27 1274.98 1023.02C1275.82 1022.77 1276.57 1022.39 1277.24 1021.9C1277.91 1021.41 1278.48 1020.81 1278.95 1020.1C1279.42 1019.38 1279.75 1018.55 1279.93 1017.62L1284.36 1017.64C1284.12 1019.07 1283.66 1020.39 1282.98 1021.59C1282.31 1022.78 1281.44 1023.81 1280.38 1024.68C1279.33 1025.55 1278.13 1026.21 1276.77 1026.69C1275.42 1027.16 1273.94 1027.4 1272.34 1027.4C1269.82 1027.4 1267.58 1026.8 1265.61 1025.61C1263.64 1024.41 1262.09 1022.69 1260.95 1020.45C1259.82 1018.22 1259.26 1015.55 1259.26 1012.45C1259.26 1009.35 1259.83 1006.68 1260.96 1004.46C1262.1 1002.22 1263.65 1000.51 1265.62 999.315C1267.59 998.113 1269.83 997.511 1272.34 997.511C1273.88 997.511 1275.32 997.734 1276.66 998.179C1278 998.615 1279.21 999.259 1280.28 1000.11C1281.35 1000.95 1282.24 1001.99 1282.94 1003.21C1283.64 1004.42 1284.11 1005.81 1284.36 1007.37ZM1314.88 1012.45C1314.88 1015.56 1314.31 1018.23 1313.18 1020.47C1312.04 1022.69 1310.48 1024.41 1308.5 1025.61C1306.53 1026.8 1304.29 1027.4 1301.78 1027.4C1299.26 1027.4 1297.02 1026.8 1295.04 1025.61C1293.07 1024.41 1291.51 1022.69 1290.38 1020.45C1289.24 1018.22 1288.67 1015.55 1288.67 1012.45C1288.67 1009.35 1289.24 1006.68 1290.38 1004.46C1291.51 1002.22 1293.07 1000.51 1295.04 999.315C1297.02 998.113 1299.26 997.511 1301.78 997.511C1304.29 997.511 1306.53 998.113 1308.5 999.315C1310.48 1000.51 1312.04 1002.22 1313.18 1004.46C1314.31 1006.68 1314.88 1009.35 1314.88 1012.45ZM1310.53 1012.45C1310.53 1010.09 1310.15 1008.09 1309.38 1006.47C1308.63 1004.85 1307.58 1003.61 1306.26 1002.78C1304.94 1001.94 1303.45 1001.52 1301.78 1001.52C1300.11 1001.52 1298.61 1001.94 1297.29 1002.78C1295.98 1003.61 1294.94 1004.85 1294.17 1006.47C1293.41 1008.09 1293.03 1010.09 1293.03 1012.45C1293.03 1014.82 1293.41 1016.82 1294.17 1018.45C1294.94 1020.07 1295.98 1021.3 1297.29 1022.14C1298.61 1022.98 1300.11 1023.39 1301.78 1023.39C1303.45 1023.39 1304.94 1022.98 1306.26 1022.14C1307.58 1021.3 1308.63 1020.07 1309.38 1018.45C1310.15 1016.82 1310.53 1014.82 1310.53 1012.45ZM1329.77 1027H1320.35V997.909H1330.07C1332.92 997.909 1335.37 998.491 1337.41 999.656C1339.46 1000.81 1341.02 1002.47 1342.11 1004.64C1343.21 1006.8 1343.76 1009.39 1343.76 1012.41C1343.76 1015.44 1343.21 1018.05 1342.1 1020.22C1341 1022.4 1339.41 1024.08 1337.33 1025.25C1335.24 1026.42 1332.72 1027 1329.77 1027ZM1324.74 1023.16H1329.53C1331.74 1023.16 1333.59 1022.75 1335.05 1021.91C1336.52 1021.07 1337.62 1019.86 1338.35 1018.26C1339.08 1016.66 1339.44 1014.71 1339.44 1012.41C1339.44 1010.13 1339.08 1008.19 1338.35 1006.6C1337.63 1005.01 1336.55 1003.8 1335.12 1002.98C1333.7 1002.16 1331.92 1001.74 1329.8 1001.74H1324.74V1023.16ZM1353.61 997.909V1027H1349.22V997.909H1353.61ZM1384.16 1007.37H1379.73C1379.56 1006.42 1379.24 1005.59 1378.78 1004.87C1378.32 1004.15 1377.75 1003.54 1377.07 1003.04C1376.4 1002.54 1375.65 1002.16 1374.82 1001.9C1373.99 1001.64 1373.12 1001.52 1372.19 1001.52C1370.51 1001.52 1369.01 1001.94 1367.69 1002.78C1366.37 1003.62 1365.33 1004.86 1364.56 1006.49C1363.8 1008.12 1363.42 1010.11 1363.42 1012.45C1363.42 1014.82 1363.8 1016.82 1364.56 1018.45C1365.33 1020.08 1366.37 1021.31 1367.7 1022.14C1369.03 1022.98 1370.52 1023.39 1372.17 1023.39C1373.09 1023.39 1373.96 1023.27 1374.79 1023.02C1375.62 1022.77 1376.37 1022.39 1377.05 1021.9C1377.72 1021.41 1378.29 1020.81 1378.75 1020.1C1379.22 1019.38 1379.55 1018.55 1379.73 1017.62L1384.16 1017.64C1383.93 1019.07 1383.47 1020.39 1382.78 1021.59C1382.11 1022.78 1381.25 1023.81 1380.19 1024.68C1379.13 1025.55 1377.93 1026.21 1376.58 1026.69C1375.22 1027.16 1373.75 1027.4 1372.15 1027.4C1369.63 1027.4 1367.38 1026.8 1365.41 1025.61C1363.44 1024.41 1361.89 1022.69 1360.75 1020.45C1359.63 1018.22 1359.06 1015.55 1359.06 1012.45C1359.06 1009.35 1359.63 1006.68 1360.77 1004.46C1361.9 1002.22 1363.46 1000.51 1365.43 999.315C1367.4 998.113 1369.64 997.511 1372.15 997.511C1373.69 997.511 1375.13 997.734 1376.46 998.179C1377.81 998.615 1379.02 999.259 1380.09 1000.11C1381.16 1000.95 1382.04 1001.99 1382.74 1003.21C1383.44 1004.42 1383.92 1005.81 1384.16 1007.37ZM1389.41 1027V997.909H1407.65V1001.69H1393.8V1010.55H1406.7V1014.32H1393.8V1023.22H1407.82V1027H1389.41ZM1433.52 1027H1424.1V997.909H1433.82C1436.67 997.909 1439.12 998.491 1441.16 999.656C1443.21 1000.81 1444.77 1002.47 1445.86 1004.64C1446.96 1006.8 1447.51 1009.39 1447.51 1012.41C1447.51 1015.44 1446.96 1018.05 1445.85 1020.22C1444.75 1022.4 1443.16 1024.08 1441.08 1025.25C1438.99 1026.42 1436.47 1027 1433.52 1027ZM1428.49 1023.16H1433.28C1435.49 1023.16 1437.34 1022.75 1438.8 1021.91C1440.27 1021.07 1441.37 1019.86 1442.1 1018.26C1442.83 1016.66 1443.19 1014.71 1443.19 1012.41C1443.19 1010.13 1442.83 1008.19 1442.1 1006.6C1441.38 1005.01 1440.3 1003.8 1438.88 1002.98C1437.45 1002.16 1435.67 1001.74 1433.55 1001.74H1428.49V1023.16ZM1456.28 997.909V1000.64C1456.28 1001.44 1456.13 1002.29 1455.82 1003.18C1455.53 1004.06 1455.11 1004.91 1454.57 1005.72C1454.03 1006.54 1453.4 1007.24 1452.67 1007.82L1450.57 1006.32C1451.13 1005.5 1451.61 1004.64 1452.02 1003.72C1452.43 1002.8 1452.64 1001.79 1452.64 1000.68V997.909H1456.28ZM1457.93 1027H1453.27L1463.74 997.909H1468.81L1479.28 1027H1474.62L1466.39 1003.19H1466.17L1457.93 1027ZM1458.71 1015.61H1473.82V1019.3H1458.71V1015.61ZM1506.27 1007.37H1501.84C1501.67 1006.42 1501.35 1005.59 1500.89 1004.87C1500.42 1004.15 1499.86 1003.54 1499.18 1003.04C1498.51 1002.54 1497.76 1002.16 1496.93 1001.9C1496.1 1001.64 1495.23 1001.52 1494.3 1001.52C1492.62 1001.52 1491.12 1001.94 1489.79 1002.78C1488.48 1003.62 1487.44 1004.86 1486.67 1006.49C1485.91 1008.12 1485.53 1010.11 1485.53 1012.45C1485.53 1014.82 1485.91 1016.82 1486.67 1018.45C1487.44 1020.08 1488.48 1021.31 1489.81 1022.14C1491.13 1022.98 1492.63 1023.39 1494.28 1023.39C1495.2 1023.39 1496.07 1023.27 1496.9 1023.02C1497.73 1022.77 1498.48 1022.39 1499.16 1021.9C1499.83 1021.41 1500.4 1020.81 1500.86 1020.1C1501.33 1019.38 1501.66 1018.55 1501.84 1017.62L1506.27 1017.64C1506.04 1019.07 1505.58 1020.39 1504.89 1021.59C1504.22 1022.78 1503.36 1023.81 1502.29 1024.68C1501.24 1025.55 1500.04 1026.21 1498.69 1026.69C1497.33 1027.16 1495.86 1027.4 1494.25 1027.4C1491.74 1027.4 1489.49 1026.8 1487.52 1025.61C1485.55 1024.41 1484 1022.69 1482.86 1020.45C1481.74 1018.22 1481.17 1015.55 1481.17 1012.45C1481.17 1009.35 1481.74 1006.68 1482.88 1004.46C1484.01 1002.22 1485.57 1000.51 1487.54 999.315C1489.51 998.113 1491.75 997.511 1494.25 997.511C1495.8 997.511 1497.24 997.734 1498.57 998.179C1499.92 998.615 1501.13 999.259 1502.2 1000.11C1503.27 1000.95 1504.15 1001.99 1504.85 1003.21C1505.55 1004.42 1506.03 1005.81 1506.27 1007.37ZM1535.69 1007.37H1531.25C1531.08 1006.42 1530.77 1005.59 1530.3 1004.87C1529.84 1004.15 1529.27 1003.54 1528.6 1003.04C1527.93 1002.54 1527.17 1002.16 1526.34 1001.9C1525.52 1001.64 1524.64 1001.52 1523.71 1001.52C1522.04 1001.52 1520.53 1001.94 1519.21 1002.78C1517.89 1003.62 1516.85 1004.86 1516.08 1006.49C1515.33 1008.12 1514.95 1010.11 1514.95 1012.45C1514.95 1014.82 1515.33 1016.82 1516.08 1018.45C1516.85 1020.08 1517.9 1021.31 1519.22 1022.14C1520.55 1022.98 1522.04 1023.39 1523.7 1023.39C1524.62 1023.39 1525.49 1023.27 1526.31 1023.02C1527.14 1022.77 1527.9 1022.39 1528.57 1021.9C1529.24 1021.41 1529.81 1020.81 1530.27 1020.1C1530.75 1019.38 1531.07 1018.55 1531.25 1017.62L1535.69 1017.64C1535.45 1019.07 1534.99 1020.39 1534.31 1021.59C1533.64 1022.78 1532.77 1023.81 1531.71 1024.68C1530.66 1025.55 1529.46 1026.21 1528.1 1026.69C1526.75 1027.16 1525.27 1027.4 1523.67 1027.4C1521.15 1027.4 1518.91 1026.8 1516.94 1025.61C1514.97 1024.41 1513.41 1022.69 1512.28 1020.45C1511.15 1018.22 1510.59 1015.55 1510.59 1012.45C1510.59 1009.35 1511.15 1006.68 1512.29 1004.46C1513.43 1002.22 1514.98 1000.51 1516.95 999.315C1518.92 998.113 1521.16 997.511 1523.67 997.511C1525.21 997.511 1526.65 997.734 1527.99 998.179C1529.33 998.615 1530.54 999.259 1531.61 1000.11C1532.68 1000.95 1533.56 1001.99 1534.27 1003.21C1534.97 1004.42 1535.44 1005.81 1535.69 1007.37ZM1540.94 1027V997.909H1559.18V1001.69H1545.33V1010.55H1558.23V1014.32H1545.33V1023.22H1559.35V1027H1540.94ZM1580.91 1005.55C1580.75 1004.21 1580.13 1003.16 1579.03 1002.43C1577.93 1001.68 1576.55 1001.3 1574.88 1001.3C1573.69 1001.3 1572.66 1001.49 1571.79 1001.87C1570.92 1002.24 1570.24 1002.75 1569.76 1003.41C1569.28 1004.05 1569.05 1004.78 1569.05 1005.61C1569.05 1006.3 1569.21 1006.9 1569.53 1007.4C1569.86 1007.9 1570.29 1008.32 1570.82 1008.66C1571.36 1008.99 1571.94 1009.27 1572.55 1009.5C1573.17 1009.72 1573.76 1009.9 1574.33 1010.04L1577.17 1010.78C1578.1 1011.01 1579.05 1011.31 1580.03 1011.7C1581 1012.09 1581.91 1012.6 1582.74 1013.24C1583.57 1013.87 1584.24 1014.66 1584.76 1015.59C1585.28 1016.53 1585.54 1017.65 1585.54 1018.96C1585.54 1020.61 1585.11 1022.07 1584.26 1023.35C1583.42 1024.63 1582.19 1025.64 1580.58 1026.38C1578.98 1027.11 1577.04 1027.48 1574.77 1027.48C1572.59 1027.48 1570.71 1027.14 1569.12 1026.45C1567.53 1025.75 1566.28 1024.77 1565.38 1023.51C1564.48 1022.23 1563.98 1020.71 1563.89 1018.96H1568.29C1568.38 1020.01 1568.72 1020.89 1569.32 1021.59C1569.92 1022.28 1570.69 1022.8 1571.63 1023.14C1572.58 1023.47 1573.61 1023.63 1574.74 1023.63C1575.98 1023.63 1577.09 1023.44 1578.05 1023.05C1579.03 1022.65 1579.79 1022.1 1580.35 1021.4C1580.91 1020.69 1581.19 1019.86 1581.19 1018.92C1581.19 1018.06 1580.94 1017.35 1580.45 1016.8C1579.97 1016.25 1579.31 1015.8 1578.48 1015.44C1577.65 1015.08 1576.72 1014.76 1575.68 1014.49L1572.24 1013.55C1569.91 1012.91 1568.07 1011.98 1566.7 1010.75C1565.35 1009.52 1564.67 1007.89 1564.67 1005.86C1564.67 1004.19 1565.13 1002.72 1566.03 1001.47C1566.94 1000.22 1568.17 999.254 1569.73 998.562C1571.28 997.862 1573.03 997.511 1574.98 997.511C1576.95 997.511 1578.69 997.857 1580.2 998.548C1581.71 999.24 1582.9 1000.19 1583.78 1001.4C1584.65 1002.61 1585.1 1003.99 1585.14 1005.55H1580.91ZM1606.65 1005.55C1606.5 1004.21 1605.87 1003.16 1604.77 1002.43C1603.67 1001.68 1602.29 1001.3 1600.63 1001.3C1599.43 1001.3 1598.4 1001.49 1597.53 1001.87C1596.66 1002.24 1595.98 1002.75 1595.5 1003.41C1595.02 1004.05 1594.79 1004.78 1594.79 1005.61C1594.79 1006.3 1594.95 1006.9 1595.27 1007.4C1595.6 1007.9 1596.03 1008.32 1596.56 1008.66C1597.1 1008.99 1597.68 1009.27 1598.3 1009.5C1598.91 1009.72 1599.5 1009.9 1600.07 1010.04L1602.91 1010.78C1603.84 1011.01 1604.79 1011.31 1605.77 1011.7C1606.74 1012.09 1607.65 1012.6 1608.48 1013.24C1609.31 1013.87 1609.99 1014.66 1610.5 1015.59C1611.02 1016.53 1611.28 1017.65 1611.28 1018.96C1611.28 1020.61 1610.85 1022.07 1610 1023.35C1609.16 1024.63 1607.93 1025.64 1606.32 1026.38C1604.72 1027.11 1602.78 1027.48 1600.51 1027.48C1598.33 1027.48 1596.45 1027.14 1594.86 1026.45C1593.27 1025.75 1592.02 1024.77 1591.12 1023.51C1590.22 1022.23 1589.73 1020.71 1589.63 1018.96H1594.03C1594.12 1020.01 1594.46 1020.89 1595.06 1021.59C1595.66 1022.28 1596.44 1022.8 1597.37 1023.14C1598.32 1023.47 1599.36 1023.63 1600.48 1023.63C1601.72 1023.63 1602.83 1023.44 1603.79 1023.05C1604.77 1022.65 1605.54 1022.1 1606.09 1021.4C1606.65 1020.69 1606.93 1019.86 1606.93 1018.92C1606.93 1018.06 1606.69 1017.35 1606.19 1016.8C1605.71 1016.25 1605.05 1015.8 1604.22 1015.44C1603.4 1015.08 1602.46 1014.76 1601.42 1014.49L1597.98 1013.55C1595.65 1012.91 1593.81 1011.98 1592.44 1010.75C1591.09 1009.52 1590.41 1007.89 1590.41 1005.86C1590.41 1004.19 1590.87 1002.72 1591.78 1001.47C1592.69 1000.22 1593.92 999.254 1595.47 998.562C1597.02 997.862 1598.77 997.511 1600.73 997.511C1602.69 997.511 1604.43 997.857 1605.94 998.548C1607.45 999.24 1608.65 1000.19 1609.52 1001.4C1610.39 1002.61 1610.84 1003.99 1610.88 1005.55H1606.65ZM1641.79 1012.45C1641.79 1015.56 1641.23 1018.23 1640.09 1020.47C1638.95 1022.69 1637.4 1024.41 1635.42 1025.61C1633.45 1026.8 1631.21 1027.4 1628.7 1027.4C1626.18 1027.4 1623.93 1026.8 1621.95 1025.61C1619.98 1024.41 1618.43 1022.69 1617.29 1020.45C1616.15 1018.22 1615.59 1015.55 1615.59 1012.45C1615.59 1009.35 1616.15 1006.68 1617.29 1004.46C1618.43 1002.22 1619.98 1000.51 1621.95 999.315C1623.93 998.113 1626.18 997.511 1628.7 997.511C1631.21 997.511 1633.45 998.113 1635.42 999.315C1637.4 1000.51 1638.95 1002.22 1640.09 1004.46C1641.23 1006.68 1641.79 1009.35 1641.79 1012.45ZM1637.45 1012.45C1637.45 1010.09 1637.06 1008.09 1636.3 1006.47C1635.54 1004.85 1634.5 1003.61 1633.17 1002.78C1631.86 1001.94 1630.36 1001.52 1628.7 1001.52C1627.02 1001.52 1625.53 1001.94 1624.21 1002.78C1622.89 1003.61 1621.85 1004.85 1621.08 1006.47C1620.33 1008.09 1619.95 1010.09 1619.95 1012.45C1619.95 1014.82 1620.33 1016.82 1621.08 1018.45C1621.85 1020.07 1622.89 1021.3 1624.21 1022.14C1625.53 1022.98 1627.02 1023.39 1628.7 1023.39C1630.36 1023.39 1631.86 1022.98 1633.17 1022.14C1634.5 1021.3 1635.54 1020.07 1636.3 1018.45C1637.06 1016.82 1637.45 1014.82 1637.45 1012.45ZM1673.72 1005.55C1673.57 1004.21 1672.94 1003.16 1671.84 1002.43C1670.75 1001.68 1669.36 1001.3 1667.7 1001.3C1666.5 1001.3 1665.47 1001.49 1664.6 1001.87C1663.73 1002.24 1663.05 1002.75 1662.57 1003.41C1662.09 1004.05 1661.86 1004.78 1661.86 1005.61C1661.86 1006.3 1662.02 1006.9 1662.34 1007.4C1662.67 1007.9 1663.1 1008.32 1663.63 1008.66C1664.17 1008.99 1664.75 1009.27 1665.37 1009.5C1665.98 1009.72 1666.57 1009.9 1667.14 1010.04L1669.98 1010.78C1670.91 1011.01 1671.86 1011.31 1672.84 1011.7C1673.81 1012.09 1674.72 1012.6 1675.55 1013.24C1676.38 1013.87 1677.06 1014.66 1677.57 1015.59C1678.09 1016.53 1678.35 1017.65 1678.35 1018.96C1678.35 1020.61 1677.92 1022.07 1677.07 1023.35C1676.23 1024.63 1675 1025.64 1673.39 1026.38C1671.79 1027.11 1669.86 1027.48 1667.58 1027.48C1665.4 1027.48 1663.52 1027.14 1661.93 1026.45C1660.34 1025.75 1659.09 1024.77 1658.19 1023.51C1657.29 1022.23 1656.8 1020.71 1656.7 1018.96H1661.11C1661.19 1020.01 1661.53 1020.89 1662.13 1021.59C1662.73 1022.28 1663.51 1022.8 1664.44 1023.14C1665.39 1023.47 1666.43 1023.63 1667.55 1023.63C1668.79 1023.63 1669.9 1023.44 1670.86 1023.05C1671.84 1022.65 1672.61 1022.1 1673.16 1021.4C1673.72 1020.69 1674 1019.86 1674 1018.92C1674 1018.06 1673.76 1017.35 1673.26 1016.8C1672.78 1016.25 1672.12 1015.8 1671.29 1015.44C1670.47 1015.08 1669.53 1014.76 1668.49 1014.49L1665.05 1013.55C1662.72 1012.91 1660.88 1011.98 1659.51 1010.75C1658.16 1009.52 1657.48 1007.89 1657.48 1005.86C1657.48 1004.19 1657.94 1002.72 1658.85 1001.47C1659.76 1000.22 1660.99 999.254 1662.54 998.562C1664.09 997.862 1665.84 997.511 1667.8 997.511C1669.77 997.511 1671.5 997.857 1673.01 998.548C1674.52 999.24 1675.72 1000.19 1676.59 1001.4C1677.46 1002.61 1677.91 1003.99 1677.95 1005.55H1673.72ZM1683.59 997.909H1688.92L1698.18 1020.52H1698.52L1707.78 997.909H1713.11V1027H1708.94V1005.95H1708.67L1700.09 1026.96H1696.62L1688.04 1005.93H1687.77V1027H1683.59V997.909ZM1721.95 1027H1717.29L1727.76 997.909H1732.83L1743.3 1027H1738.64L1730.42 1003.19H1730.19L1721.95 1027ZM1722.73 1015.61H1737.85V1019.3H1722.73V1015.61ZM1747.5 1027V997.909H1757.87C1760.12 997.909 1761.99 998.297 1763.48 999.074C1764.98 999.85 1766.09 1000.93 1766.83 1002.3C1767.57 1003.66 1767.94 1005.24 1767.94 1007.03C1767.94 1008.81 1767.57 1010.38 1766.82 1011.73C1766.08 1013.07 1764.96 1014.12 1763.47 1014.87C1761.98 1015.62 1760.11 1015.99 1757.86 1015.99H1750V1012.21H1757.46C1758.88 1012.21 1760.03 1012.01 1760.92 1011.6C1761.82 1011.2 1762.48 1010.6 1762.9 1009.83C1763.32 1009.05 1763.52 1008.12 1763.52 1007.03C1763.52 1005.93 1763.31 1004.98 1762.88 1004.17C1762.47 1003.37 1761.81 1002.75 1760.91 1002.33C1760.02 1001.89 1758.85 1001.67 1757.4 1001.67H1751.89V1027H1747.5ZM1761.86 1013.88L1769.05 1027H1764.05L1757 1013.88H1761.86ZM1773.28 1027V997.909H1783.65C1785.91 997.909 1787.78 998.297 1789.26 999.074C1790.76 999.85 1791.88 1000.93 1792.61 1002.3C1793.35 1003.66 1793.72 1005.24 1793.72 1007.03C1793.72 1008.81 1793.35 1010.38 1792.6 1011.73C1791.86 1013.07 1790.74 1014.12 1789.25 1014.87C1787.76 1015.62 1785.89 1015.99 1783.64 1015.99H1775.78V1012.21H1783.24C1784.66 1012.21 1785.82 1012.01 1786.71 1011.6C1787.6 1011.2 1788.26 1010.6 1788.68 1009.83C1789.1 1009.05 1789.3 1008.12 1789.3 1007.03C1789.3 1005.93 1789.09 1004.98 1788.67 1004.17C1788.25 1003.37 1787.59 1002.75 1786.69 1002.33C1785.8 1001.89 1784.63 1001.67 1783.18 1001.67H1777.67V1027H1773.28ZM1787.64 1013.88L1794.83 1027H1789.83L1782.78 1013.88H1787.64ZM1803.45 997.909V1027H1799.06V997.909H1803.45ZM1808.41 1001.69V997.909H1830.92V1001.69H1821.85V1027H1817.47V1001.69H1808.41ZM1859.92 1012.45C1859.92 1015.56 1859.35 1018.23 1858.21 1020.47C1857.08 1022.69 1855.52 1024.41 1853.54 1025.61C1851.57 1026.8 1849.33 1027.4 1846.82 1027.4C1844.3 1027.4 1842.05 1026.8 1840.08 1025.61C1838.11 1024.41 1836.55 1022.69 1835.42 1020.45C1834.28 1018.22 1833.71 1015.55 1833.71 1012.45C1833.71 1009.35 1834.28 1006.68 1835.42 1004.46C1836.55 1002.22 1838.11 1000.51 1840.08 999.315C1842.05 998.113 1844.3 997.511 1846.82 997.511C1849.33 997.511 1851.57 998.113 1853.54 999.315C1855.52 1000.51 1857.08 1002.22 1858.21 1004.46C1859.35 1006.68 1859.92 1009.35 1859.92 1012.45ZM1855.57 1012.45C1855.57 1010.09 1855.19 1008.09 1854.42 1006.47C1853.66 1004.85 1852.62 1003.61 1851.3 1002.78C1849.98 1001.94 1848.49 1001.52 1846.82 1001.52C1845.15 1001.52 1843.65 1001.94 1842.33 1002.78C1841.02 1003.61 1839.98 1004.85 1839.21 1006.47C1838.45 1008.09 1838.07 1010.09 1838.07 1012.45C1838.07 1014.82 1838.45 1016.82 1839.21 1018.45C1839.98 1020.07 1841.02 1021.3 1842.33 1022.14C1843.65 1022.98 1845.15 1023.39 1846.82 1023.39C1848.49 1023.39 1849.98 1022.98 1851.3 1022.14C1852.62 1021.3 1853.66 1020.07 1854.42 1018.45C1855.19 1016.82 1855.57 1014.82 1855.57 1012.45ZM1869.7 1018.63V1018.36C1869.71 1016.6 1869.89 1015.2 1870.22 1014.16C1870.56 1013.12 1871.04 1012.27 1871.67 1011.63C1872.29 1010.99 1873.05 1010.4 1873.93 1009.87C1874.5 1009.51 1875.01 1009.11 1875.46 1008.66C1875.92 1008.22 1876.28 1007.71 1876.54 1007.13C1876.81 1006.55 1876.94 1005.91 1876.94 1005.21C1876.94 1004.37 1876.74 1003.64 1876.34 1003.02C1875.95 1002.41 1875.42 1001.93 1874.75 1001.6C1874.1 1001.26 1873.37 1001.09 1872.56 1001.09C1871.84 1001.09 1871.14 1001.24 1870.48 1001.55C1869.81 1001.85 1869.26 1002.32 1868.83 1002.97C1868.39 1003.6 1868.14 1004.42 1868.08 1005.42H1863.76C1863.82 1003.72 1864.25 1002.28 1865.05 1001.11C1865.85 999.921 1866.9 999.027 1868.2 998.42C1869.52 997.814 1870.97 997.511 1872.56 997.511C1874.31 997.511 1875.83 997.838 1877.14 998.491C1878.45 999.135 1879.46 1000.04 1880.18 1001.2C1880.91 1002.36 1881.27 1003.71 1881.27 1005.25C1881.27 1006.31 1881.11 1007.27 1880.77 1008.12C1880.44 1008.96 1879.97 1009.72 1879.35 1010.38C1878.75 1011.04 1878.02 1011.63 1877.17 1012.14C1876.36 1012.64 1875.71 1013.16 1875.21 1013.7C1874.71 1014.24 1874.35 1014.88 1874.13 1015.62C1873.9 1016.36 1873.78 1017.27 1873.76 1018.36V1018.63H1869.7ZM1871.84 1027.27C1871.06 1027.27 1870.4 1027 1869.84 1026.45C1869.28 1025.89 1869 1025.21 1869 1024.43C1869 1023.65 1869.28 1022.99 1869.84 1022.44C1870.4 1021.88 1871.06 1021.6 1871.84 1021.6C1872.61 1021.6 1873.27 1021.88 1873.83 1022.44C1874.4 1022.99 1874.68 1023.65 1874.68 1024.43C1874.68 1024.95 1874.55 1025.43 1874.28 1025.86C1874.03 1026.29 1873.69 1026.63 1873.26 1026.89C1872.83 1027.14 1872.36 1027.27 1871.84 1027.27Z" fill="black"/>
  <path d="M84.196 1027V997.909H94.5653C96.8191 997.909 98.6894 998.297 100.176 999.074C101.672 999.85 102.79 1000.93 103.528 1002.3C104.267 1003.66 104.636 1005.24 104.636 1007.03C104.636 1008.81 104.262 1010.38 103.514 1011.73C102.776 1013.07 101.658 1014.12 100.162 1014.87C98.6752 1015.62 96.8049 1015.99 94.5511 1015.99H86.696V1012.21H94.1534C95.5739 1012.21 96.7292 1012.01 97.6193 1011.6C98.5189 1011.2 99.1771 1010.6 99.5938 1009.83C100.01 1009.05 100.219 1008.12 100.219 1007.03C100.219 1005.93 100.006 1004.98 99.5795 1004.17C99.1629 1003.37 98.5047 1002.75 97.6051 1002.33C96.715 1001.89 95.5455 1001.67 94.0966 1001.67H88.5852V1027H84.196ZM98.5568 1013.88L105.744 1027H100.744L93.6989 1013.88H98.5568ZM109.977 1027V997.909H128.216V1001.69H114.366V1010.55H127.264V1014.32H114.366V1023.22H128.386V1027H109.977ZM153.766 1007.1C153.492 1006.24 153.122 1005.47 152.658 1004.78C152.204 1004.09 151.659 1003.51 151.025 1003.02C150.39 1002.53 149.666 1002.16 148.852 1001.9C148.047 1001.64 147.161 1001.52 146.195 1001.52C144.557 1001.52 143.08 1001.94 141.763 1002.78C140.447 1003.62 139.406 1004.86 138.638 1006.49C137.881 1008.11 137.502 1010.09 137.502 1012.44C137.502 1014.8 137.886 1016.79 138.653 1018.42C139.42 1020.05 140.471 1021.29 141.806 1022.13C143.141 1022.97 144.661 1023.39 146.366 1023.39C147.947 1023.39 149.325 1023.07 150.499 1022.43C151.683 1021.78 152.597 1020.87 153.241 1019.7C153.894 1018.52 154.221 1017.12 154.221 1015.52L155.357 1015.74H147.033V1012.11H158.468V1015.42C158.468 1017.87 157.947 1019.99 156.906 1021.79C155.873 1023.58 154.443 1024.96 152.616 1025.93C150.798 1026.91 148.714 1027.4 146.366 1027.4C143.733 1027.4 141.423 1026.79 139.434 1025.58C137.455 1024.37 135.911 1022.65 134.803 1020.42C133.695 1018.19 133.141 1015.54 133.141 1012.47C133.141 1010.15 133.463 1008.07 134.107 1006.22C134.751 1004.37 135.656 1002.8 136.82 1001.52C137.995 1000.22 139.372 999.23 140.954 998.548C142.545 997.857 144.282 997.511 146.167 997.511C147.739 997.511 149.202 997.743 150.556 998.207C151.92 998.671 153.132 999.33 154.192 1000.18C155.263 1001.03 156.148 1002.05 156.849 1003.22C157.549 1004.39 158.023 1005.68 158.269 1007.1H153.766ZM168.429 997.909V1027H164.04V997.909H168.429ZM190.688 1005.55C190.536 1004.21 189.911 1003.16 188.812 1002.43C187.714 1001.68 186.331 1001.3 184.665 1001.3C183.472 1001.3 182.439 1001.49 181.568 1001.87C180.697 1002.24 180.02 1002.75 179.537 1003.41C179.063 1004.05 178.827 1004.78 178.827 1005.61C178.827 1006.3 178.988 1006.9 179.31 1007.4C179.641 1007.9 180.072 1008.32 180.602 1008.66C181.142 1008.99 181.72 1009.27 182.335 1009.5C182.951 1009.72 183.543 1009.9 184.111 1010.04L186.952 1010.78C187.88 1011.01 188.831 1011.31 189.807 1011.7C190.782 1012.09 191.687 1012.6 192.52 1013.24C193.353 1013.87 194.026 1014.66 194.537 1015.59C195.058 1016.53 195.318 1017.65 195.318 1018.96C195.318 1020.61 194.892 1022.07 194.04 1023.35C193.197 1024.63 191.971 1025.64 190.361 1026.38C188.76 1027.11 186.824 1027.48 184.551 1027.48C182.373 1027.48 180.489 1027.14 178.898 1026.45C177.307 1025.75 176.062 1024.77 175.162 1023.51C174.262 1022.23 173.765 1020.71 173.67 1018.96H178.074C178.159 1020.01 178.5 1020.89 179.097 1021.59C179.703 1022.28 180.474 1022.8 181.412 1023.14C182.359 1023.47 183.396 1023.63 184.523 1023.63C185.763 1023.63 186.866 1023.44 187.832 1023.05C188.808 1022.65 189.575 1022.1 190.134 1021.4C190.692 1020.69 190.972 1019.86 190.972 1018.92C190.972 1018.06 190.725 1017.35 190.233 1016.8C189.75 1016.25 189.092 1015.8 188.259 1015.44C187.435 1015.08 186.502 1014.76 185.46 1014.49L182.023 1013.55C179.693 1012.91 177.847 1011.98 176.483 1010.75C175.129 1009.52 174.452 1007.89 174.452 1005.86C174.452 1004.19 174.906 1002.72 175.815 1001.47C176.724 1000.22 177.955 999.254 179.509 998.562C181.062 997.862 182.813 997.511 184.764 997.511C186.734 997.511 188.472 997.857 189.977 998.548C191.492 999.24 192.686 1000.19 193.557 1001.4C194.428 1002.61 194.883 1003.99 194.92 1005.55H190.688ZM199.129 1001.69V997.909H221.643V1001.69H212.566V1027H208.191V1001.69H199.129ZM226.618 1027V997.909H236.987C239.241 997.909 241.111 998.297 242.598 999.074C244.094 999.85 245.212 1000.93 245.95 1002.3C246.689 1003.66 247.058 1005.24 247.058 1007.03C247.058 1008.81 246.684 1010.38 245.936 1011.73C245.197 1013.07 244.08 1014.12 242.584 1014.87C241.097 1015.62 239.227 1015.99 236.973 1015.99H229.118V1012.21H236.575C237.996 1012.21 239.151 1012.01 240.041 1011.6C240.941 1011.2 241.599 1010.6 242.016 1009.83C242.432 1009.05 242.641 1008.12 242.641 1007.03C242.641 1005.93 242.428 1004.98 242.001 1004.17C241.585 1003.37 240.927 1002.75 240.027 1002.33C239.137 1001.89 237.967 1001.67 236.518 1001.67H231.007V1027H226.618ZM240.979 1013.88L248.166 1027H243.166L236.121 1013.88H240.979ZM254.857 1027H250.197L260.666 997.909H265.737L276.206 1027H271.547L263.322 1003.19H263.095L254.857 1027ZM255.638 1015.61H270.751V1019.3H255.638V1015.61ZM275.535 1001.69V997.909H298.049V1001.69H288.972V1027H284.597V1001.69H275.535ZM307.413 997.909V1027H303.024V997.909H307.413Z" fill="black"/>
  <path d="M113.045 415H105.591L122.341 368.455H130.455L147.205 415H139.75L126.591 376.909H126.227L113.045 415ZM114.295 396.773H138.477V402.682H114.295V396.773ZM190.398 383.591H183.307C183.034 382.076 182.527 380.742 181.784 379.591C181.042 378.439 180.133 377.462 179.057 376.659C177.981 375.856 176.777 375.25 175.443 374.841C174.125 374.432 172.723 374.227 171.239 374.227C168.557 374.227 166.155 374.902 164.034 376.25C161.928 377.598 160.261 379.576 159.034 382.182C157.822 384.788 157.216 387.97 157.216 391.727C157.216 395.515 157.822 398.712 159.034 401.318C160.261 403.924 161.936 405.894 164.057 407.227C166.178 408.561 168.564 409.227 171.216 409.227C172.686 409.227 174.08 409.03 175.398 408.636C176.731 408.227 177.936 407.629 179.011 406.841C180.087 406.053 180.996 405.091 181.739 403.955C182.496 402.803 183.019 401.485 183.307 400L190.398 400.023C190.019 402.311 189.284 404.417 188.193 406.341C187.117 408.25 185.731 409.902 184.034 411.295C182.352 412.674 180.428 413.742 178.261 414.5C176.095 415.258 173.731 415.636 171.17 415.636C167.14 415.636 163.549 414.682 160.398 412.773C157.246 410.848 154.761 408.098 152.943 404.523C151.14 400.947 150.239 396.682 150.239 391.727C150.239 386.758 151.148 382.492 152.966 378.932C154.784 375.356 157.269 372.614 160.42 370.705C163.572 368.78 167.155 367.818 171.17 367.818C173.64 367.818 175.943 368.174 178.08 368.886C180.231 369.583 182.163 370.614 183.875 371.977C185.587 373.326 187.004 374.977 188.125 376.932C189.246 378.871 190.004 381.091 190.398 383.591ZM237.46 383.591H230.369C230.097 382.076 229.589 380.742 228.847 379.591C228.104 378.439 227.195 377.462 226.119 376.659C225.044 375.856 223.839 375.25 222.506 374.841C221.188 374.432 219.786 374.227 218.301 374.227C215.619 374.227 213.218 374.902 211.097 376.25C208.991 377.598 207.324 379.576 206.097 382.182C204.884 384.788 204.278 387.97 204.278 391.727C204.278 395.515 204.884 398.712 206.097 401.318C207.324 403.924 208.998 405.894 211.119 407.227C213.241 408.561 215.627 409.227 218.278 409.227C219.748 409.227 221.142 409.03 222.46 408.636C223.794 408.227 224.998 407.629 226.074 406.841C227.15 406.053 228.059 405.091 228.801 403.955C229.559 402.803 230.081 401.485 230.369 400L237.46 400.023C237.081 402.311 236.347 404.417 235.256 406.341C234.18 408.25 232.794 409.902 231.097 411.295C229.415 412.674 227.491 413.742 225.324 414.5C223.157 415.258 220.794 415.636 218.233 415.636C214.203 415.636 210.612 414.682 207.46 412.773C204.309 410.848 201.824 408.098 200.006 404.523C198.203 400.947 197.301 396.682 197.301 391.727C197.301 386.758 198.21 382.492 200.028 378.932C201.847 375.356 204.331 372.614 207.483 370.705C210.634 368.78 214.218 367.818 218.233 367.818C220.703 367.818 223.006 368.174 225.142 368.886C227.294 369.583 229.225 370.614 230.938 371.977C232.65 373.326 234.066 374.977 235.188 376.932C236.309 378.871 237.066 381.091 237.46 383.591ZM245.864 415V368.455H275.045V374.5H252.886V388.682H273.523V394.705H252.886V408.955H275.318V415H245.864ZM309.812 380.682C309.57 378.53 308.57 376.864 306.812 375.682C305.055 374.485 302.843 373.886 300.176 373.886C298.267 373.886 296.616 374.189 295.222 374.795C293.828 375.386 292.744 376.205 291.972 377.25C291.214 378.28 290.835 379.455 290.835 380.773C290.835 381.879 291.093 382.833 291.608 383.636C292.138 384.439 292.828 385.114 293.676 385.659C294.54 386.189 295.464 386.636 296.449 387C297.434 387.348 298.381 387.636 299.29 387.864L303.835 389.045C305.32 389.409 306.843 389.902 308.403 390.523C309.964 391.144 311.411 391.962 312.744 392.977C314.078 393.992 315.153 395.25 315.972 396.75C316.805 398.25 317.222 400.045 317.222 402.136C317.222 404.773 316.54 407.114 315.176 409.159C313.828 411.205 311.866 412.818 309.29 414C306.729 415.182 303.631 415.773 299.994 415.773C296.509 415.773 293.494 415.22 290.949 414.114C288.403 413.008 286.411 411.439 284.972 409.409C283.532 407.364 282.737 404.939 282.585 402.136H289.631C289.767 403.818 290.313 405.22 291.267 406.341C292.237 407.447 293.472 408.273 294.972 408.818C296.487 409.348 298.146 409.614 299.949 409.614C301.934 409.614 303.699 409.303 305.244 408.682C306.805 408.045 308.032 407.167 308.926 406.045C309.82 404.909 310.267 403.583 310.267 402.068C310.267 400.689 309.873 399.561 309.085 398.682C308.313 397.803 307.259 397.076 305.926 396.5C304.608 395.924 303.116 395.417 301.449 394.977L295.949 393.477C292.222 392.462 289.267 390.97 287.085 389C284.919 387.03 283.835 384.424 283.835 381.182C283.835 378.5 284.563 376.159 286.017 374.159C287.472 372.159 289.441 370.606 291.926 369.5C294.411 368.379 297.214 367.818 300.335 367.818C303.487 367.818 306.267 368.371 308.676 369.477C311.1 370.583 313.009 372.106 314.403 374.045C315.797 375.97 316.525 378.182 316.585 380.682H309.812ZM351 380.682C350.758 378.53 349.758 376.864 348 375.682C346.242 374.485 344.03 373.886 341.364 373.886C339.455 373.886 337.803 374.189 336.409 374.795C335.015 375.386 333.932 376.205 333.159 377.25C332.402 378.28 332.023 379.455 332.023 380.773C332.023 381.879 332.28 382.833 332.795 383.636C333.326 384.439 334.015 385.114 334.864 385.659C335.727 386.189 336.652 386.636 337.636 387C338.621 387.348 339.568 387.636 340.477 387.864L345.023 389.045C346.508 389.409 348.03 389.902 349.591 390.523C351.152 391.144 352.598 391.962 353.932 392.977C355.265 393.992 356.341 395.25 357.159 396.75C357.992 398.25 358.409 400.045 358.409 402.136C358.409 404.773 357.727 407.114 356.364 409.159C355.015 411.205 353.053 412.818 350.477 414C347.917 415.182 344.818 415.773 341.182 415.773C337.697 415.773 334.682 415.22 332.136 414.114C329.591 413.008 327.598 411.439 326.159 409.409C324.72 407.364 323.924 404.939 323.773 402.136H330.818C330.955 403.818 331.5 405.22 332.455 406.341C333.424 407.447 334.659 408.273 336.159 408.818C337.674 409.348 339.333 409.614 341.136 409.614C343.121 409.614 344.886 409.303 346.432 408.682C347.992 408.045 349.22 407.167 350.114 406.045C351.008 404.909 351.455 403.583 351.455 402.068C351.455 400.689 351.061 399.561 350.273 398.682C349.5 397.803 348.447 397.076 347.114 396.5C345.795 395.924 344.303 395.417 342.636 394.977L337.136 393.477C333.409 392.462 330.455 390.97 328.273 389C326.106 387.03 325.023 384.424 325.023 381.182C325.023 378.5 325.75 376.159 327.205 374.159C328.659 372.159 330.629 370.606 333.114 369.5C335.598 368.379 338.402 367.818 341.523 367.818C344.674 367.818 347.455 368.371 349.864 369.477C352.288 370.583 354.197 372.106 355.591 374.045C356.985 375.97 357.712 378.182 357.773 380.682H351ZM407.233 391.727C407.233 396.697 406.324 400.97 404.506 404.545C402.688 408.106 400.195 410.848 397.028 412.773C393.877 414.682 390.294 415.636 386.278 415.636C382.248 415.636 378.65 414.682 375.483 412.773C372.331 410.848 369.847 408.098 368.028 404.523C366.21 400.947 365.301 396.682 365.301 391.727C365.301 386.758 366.21 382.492 368.028 378.932C369.847 375.356 372.331 372.614 375.483 370.705C378.65 368.78 382.248 367.818 386.278 367.818C390.294 367.818 393.877 368.78 397.028 370.705C400.195 372.614 402.688 375.356 404.506 378.932C406.324 382.492 407.233 386.758 407.233 391.727ZM400.278 391.727C400.278 387.939 399.665 384.75 398.438 382.159C397.225 379.553 395.559 377.583 393.438 376.25C391.331 374.902 388.945 374.227 386.278 374.227C383.597 374.227 381.203 374.902 379.097 376.25C376.991 377.583 375.324 379.553 374.097 382.159C372.884 384.75 372.278 387.939 372.278 391.727C372.278 395.515 372.884 398.712 374.097 401.318C375.324 403.909 376.991 405.879 379.097 407.227C381.203 408.561 383.597 409.227 386.278 409.227C388.945 409.227 391.331 408.561 393.438 407.227C395.559 405.879 397.225 403.909 398.438 401.318C399.665 398.712 400.278 395.515 400.278 391.727Z" fill="black"/>
  <rect x="0.5" y="0.5" width="1919" height="1079" stroke="black"/>
  <text style="fill: rgb(51, 51, 51); font-family: Arial, sans-serif; font-size: 35.4px; white-space: pre;" x="311.207" y="554.761" transform="matrix(1.1042619943618774, 0, 0, 1.2187039852142334, -32.44696044921874, -122.9407958984375)">NOME</text>
</svg>