<svg width="1920" height="1080" viewBox="0 0 1920 1080" fill="none" xmlns="http://www.w3.org/2000/svg">
<rect x="0.5" y="0.5" width="1919" height="1079" fill="white"/>
<rect x="81" y="252" width="698" height="106" rx="50" fill="#EAEAEA"/>
<rect x="88" y="410" width="691" height="277" rx="50" fill="#EAEAEA"/>
<path d="M125.523 320V290.909H135.352C137.634 290.909 139.5 291.321 140.949 292.145C142.407 292.959 143.487 294.062 144.188 295.455C144.888 296.847 145.239 298.4 145.239 300.114C145.239 301.828 144.888 303.385 144.188 304.787C143.496 306.188 142.426 307.306 140.977 308.139C139.528 308.963 137.672 309.375 135.409 309.375H128.364V306.25H135.295C136.858 306.25 138.113 305.98 139.06 305.44C140.007 304.901 140.693 304.171 141.119 303.253C141.555 302.325 141.773 301.278 141.773 300.114C141.773 298.949 141.555 297.907 141.119 296.989C140.693 296.07 140.002 295.35 139.045 294.83C138.089 294.299 136.82 294.034 135.239 294.034H129.045V320H125.523ZM149.138 320H145.445L156.126 290.909H159.763L170.445 320H166.751L158.058 295.511H157.831L149.138 320ZM150.501 308.636H165.388V311.761H150.501V308.636ZM174.976 320V290.909H184.805C187.078 290.909 188.944 291.297 190.402 292.074C191.86 292.841 192.94 293.897 193.641 295.241C194.341 296.586 194.692 298.116 194.692 299.83C194.692 301.544 194.341 303.063 193.641 304.389C192.94 305.715 191.865 306.757 190.416 307.514C188.967 308.262 187.116 308.636 184.862 308.636H176.908V305.455H184.749C186.302 305.455 187.552 305.227 188.499 304.773C189.455 304.318 190.146 303.674 190.572 302.841C191.008 301.998 191.226 300.994 191.226 299.83C191.226 298.665 191.008 297.647 190.572 296.776C190.137 295.904 189.441 295.232 188.484 294.759C187.528 294.276 186.264 294.034 184.692 294.034H178.499V320H174.976ZM188.669 306.932L195.828 320H191.737L184.692 306.932H188.669ZM223.971 300H220.448C220.24 298.987 219.875 298.097 219.354 297.33C218.843 296.562 218.218 295.919 217.479 295.398C216.75 294.867 215.941 294.47 215.05 294.205C214.16 293.939 213.232 293.807 212.266 293.807C210.505 293.807 208.909 294.252 207.479 295.142C206.059 296.032 204.927 297.344 204.085 299.077C203.251 300.81 202.835 302.936 202.835 305.455C202.835 307.973 203.251 310.099 204.085 311.832C204.927 313.565 206.059 314.877 207.479 315.767C208.909 316.657 210.505 317.102 212.266 317.102C213.232 317.102 214.16 316.97 215.05 316.705C215.941 316.439 216.75 316.046 217.479 315.526C218.218 314.995 218.843 314.347 219.354 313.58C219.875 312.803 220.24 311.913 220.448 310.909H223.971C223.706 312.396 223.223 313.726 222.522 314.901C221.821 316.075 220.95 317.074 219.908 317.898C218.867 318.712 217.697 319.332 216.4 319.759C215.112 320.185 213.734 320.398 212.266 320.398C209.785 320.398 207.579 319.792 205.647 318.58C203.715 317.367 202.195 315.644 201.087 313.409C199.979 311.174 199.425 308.523 199.425 305.455C199.425 302.386 199.979 299.735 201.087 297.5C202.195 295.265 203.715 293.542 205.647 292.33C207.579 291.117 209.785 290.511 212.266 290.511C213.734 290.511 215.112 290.724 216.4 291.151C217.697 291.577 218.867 292.202 219.908 293.026C220.95 293.84 221.821 294.834 222.522 296.009C223.223 297.173 223.706 298.504 223.971 300ZM229.663 320V290.909H233.186V303.864H248.697V290.909H252.22V320H248.697V306.989H233.186V320H229.663ZM259.273 320V290.909H276.83V294.034H262.795V303.864H275.92V306.989H262.795V316.875H277.057V320H259.273ZM303.065 300C302.753 299.044 302.341 298.187 301.83 297.429C301.328 296.662 300.726 296.009 300.026 295.469C299.334 294.929 298.548 294.517 297.668 294.233C296.787 293.949 295.821 293.807 294.77 293.807C293.046 293.807 291.479 294.252 290.068 295.142C288.657 296.032 287.535 297.344 286.702 299.077C285.868 300.81 285.452 302.936 285.452 305.455C285.452 307.973 285.873 310.099 286.716 311.832C287.559 313.565 288.7 314.877 290.139 315.767C291.579 316.657 293.198 317.102 294.997 317.102C296.664 317.102 298.132 316.747 299.401 316.037C300.679 315.317 301.673 314.304 302.384 312.997C303.103 311.681 303.463 310.133 303.463 308.352L304.543 308.58H295.793V305.455H306.872V308.58C306.872 310.975 306.361 313.059 305.338 314.83C304.325 316.6 302.923 317.973 301.134 318.949C299.353 319.915 297.308 320.398 294.997 320.398C292.421 320.398 290.158 319.792 288.207 318.58C286.266 317.367 284.751 315.644 283.662 313.409C282.582 311.174 282.043 308.523 282.043 305.455C282.043 303.153 282.35 301.084 282.966 299.247C283.591 297.401 284.472 295.829 285.608 294.531C286.744 293.234 288.089 292.24 289.642 291.548C291.195 290.857 292.904 290.511 294.77 290.511C296.304 290.511 297.734 290.743 299.06 291.207C300.395 291.662 301.583 292.311 302.625 293.153C303.676 293.987 304.552 294.986 305.253 296.151C305.954 297.306 306.437 298.589 306.702 300H303.065ZM332.792 300C332.479 299.044 332.067 298.187 331.556 297.429C331.054 296.662 330.453 296.009 329.752 295.469C329.061 294.929 328.275 294.517 327.394 294.233C326.513 293.949 325.548 293.807 324.496 293.807C322.773 293.807 321.206 294.252 319.795 295.142C318.384 296.032 317.262 297.344 316.428 299.077C315.595 300.81 315.178 302.936 315.178 305.455C315.178 307.973 315.6 310.099 316.442 311.832C317.285 313.565 318.426 314.877 319.866 315.767C321.305 316.657 322.924 317.102 324.724 317.102C326.39 317.102 327.858 316.747 329.127 316.037C330.406 315.317 331.4 314.304 332.11 312.997C332.83 311.681 333.19 310.133 333.19 308.352L334.269 308.58H325.519V305.455H336.599V308.58C336.599 310.975 336.087 313.059 335.065 314.83C334.051 316.6 332.65 317.973 330.86 318.949C329.08 319.915 327.034 320.398 324.724 320.398C322.148 320.398 319.885 319.792 317.934 318.58C315.993 317.367 314.478 315.644 313.388 313.409C312.309 311.174 311.769 308.523 311.769 305.455C311.769 303.153 312.077 301.084 312.692 299.247C313.317 297.401 314.198 295.829 315.335 294.531C316.471 293.234 317.816 292.24 319.369 291.548C320.922 290.857 322.631 290.511 324.496 290.511C326.031 290.511 327.46 290.743 328.786 291.207C330.121 291.662 331.31 292.311 332.352 293.153C333.403 293.987 334.279 294.986 334.979 296.151C335.68 297.306 336.163 298.589 336.428 300H332.792ZM346.155 290.909V320H342.632V290.909H346.155Z" fill="black"/>
<path d="M704.239 290.909V320H700.716V294.602H700.545L693.443 299.318V295.739L700.716 290.909H704.239ZM722.264 320.398C721.071 320.379 719.878 320.152 718.685 319.716C717.491 319.28 716.402 318.546 715.418 317.514C714.433 316.473 713.642 315.066 713.045 313.295C712.449 311.515 712.151 309.28 712.151 306.591C712.151 304.015 712.392 301.733 712.875 299.744C713.358 297.746 714.059 296.065 714.977 294.702C715.896 293.329 717.004 292.287 718.301 291.577C719.608 290.866 721.08 290.511 722.719 290.511C724.348 290.511 725.796 290.838 727.065 291.491C728.344 292.135 729.385 293.035 730.19 294.19C730.995 295.346 731.516 296.676 731.753 298.182H728.287C727.965 296.875 727.34 295.791 726.412 294.929C725.484 294.067 724.253 293.636 722.719 293.636C720.465 293.636 718.689 294.616 717.392 296.577C716.104 298.537 715.455 301.288 715.446 304.83H715.673C716.204 304.025 716.833 303.338 717.562 302.77C718.301 302.192 719.116 301.747 720.006 301.435C720.896 301.122 721.838 300.966 722.832 300.966C724.499 300.966 726.024 301.383 727.406 302.216C728.789 303.04 729.897 304.181 730.73 305.639C731.563 307.088 731.98 308.75 731.98 310.625C731.98 312.424 731.578 314.072 730.773 315.568C729.968 317.055 728.836 318.239 727.378 319.119C725.929 319.991 724.224 320.417 722.264 320.398ZM722.264 317.273C723.457 317.273 724.527 316.974 725.474 316.378C726.431 315.781 727.184 314.981 727.733 313.977C728.292 312.973 728.571 311.856 728.571 310.625C728.571 309.422 728.301 308.329 727.761 307.344C727.231 306.349 726.497 305.559 725.56 304.972C724.632 304.384 723.571 304.091 722.378 304.091C721.478 304.091 720.64 304.271 719.864 304.631C719.087 304.981 718.405 305.464 717.818 306.08C717.241 306.695 716.786 307.401 716.455 308.196C716.123 308.982 715.957 309.811 715.957 310.682C715.957 311.837 716.227 312.917 716.767 313.92C717.316 314.924 718.064 315.734 719.011 316.349C719.968 316.965 721.052 317.273 722.264 317.273Z" fill="black"/>
<path d="M713.011 478V475.443L722.614 464.932C723.741 463.701 724.669 462.631 725.398 461.722C726.127 460.803 726.667 459.941 727.017 459.136C727.377 458.322 727.557 457.47 727.557 456.58C727.557 455.557 727.311 454.671 726.818 453.923C726.335 453.175 725.672 452.598 724.83 452.19C723.987 451.783 723.04 451.58 721.989 451.58C720.871 451.58 719.896 451.812 719.062 452.276C718.239 452.73 717.599 453.369 717.145 454.193C716.7 455.017 716.477 455.983 716.477 457.091H713.125C713.125 455.386 713.518 453.89 714.304 452.602C715.09 451.314 716.16 450.311 717.514 449.591C718.878 448.871 720.407 448.511 722.102 448.511C723.807 448.511 725.317 448.871 726.634 449.591C727.95 450.311 728.982 451.281 729.73 452.503C730.478 453.724 730.852 455.083 730.852 456.58C730.852 457.65 730.658 458.696 730.27 459.719C729.891 460.732 729.228 461.864 728.281 463.114C727.344 464.354 726.042 465.869 724.375 467.659L717.841 474.648V474.875H731.364V478H713.011Z" fill="black"/>
<path d="M130.523 478V448.909H140.352C142.634 448.909 144.5 449.321 145.949 450.145C147.407 450.959 148.487 452.062 149.188 453.455C149.888 454.847 150.239 456.4 150.239 458.114C150.239 459.828 149.888 461.385 149.188 462.787C148.496 464.188 147.426 465.306 145.977 466.139C144.528 466.963 142.672 467.375 140.409 467.375H133.364V464.25H140.295C141.858 464.25 143.113 463.98 144.06 463.44C145.007 462.901 145.693 462.171 146.119 461.253C146.555 460.325 146.773 459.278 146.773 458.114C146.773 456.949 146.555 455.907 146.119 454.989C145.693 454.07 145.002 453.35 144.045 452.83C143.089 452.299 141.82 452.034 140.239 452.034H134.045V478H130.523ZM159.436 448.909V478H155.913V448.909H159.436ZM182.408 456.182C182.238 454.742 181.547 453.625 180.335 452.83C179.122 452.034 177.636 451.636 175.874 451.636C174.586 451.636 173.46 451.845 172.494 452.261C171.537 452.678 170.789 453.251 170.249 453.98C169.719 454.709 169.454 455.538 169.454 456.466C169.454 457.242 169.638 457.91 170.008 458.469C170.387 459.018 170.87 459.477 171.457 459.847C172.044 460.206 172.659 460.505 173.303 460.741C173.947 460.969 174.539 461.153 175.079 461.295L178.033 462.091C178.791 462.29 179.634 462.564 180.562 462.915C181.499 463.265 182.394 463.743 183.246 464.349C184.108 464.946 184.818 465.713 185.377 466.651C185.936 467.588 186.215 468.739 186.215 470.102C186.215 471.674 185.803 473.095 184.979 474.364C184.165 475.633 182.972 476.641 181.4 477.389C179.837 478.137 177.939 478.511 175.704 478.511C173.621 478.511 171.817 478.175 170.292 477.503C168.777 476.83 167.584 475.893 166.712 474.69C165.851 473.488 165.363 472.091 165.249 470.5H168.886C168.98 471.598 169.35 472.508 169.994 473.227C170.647 473.937 171.471 474.468 172.465 474.818C173.469 475.159 174.549 475.33 175.704 475.33C177.049 475.33 178.256 475.112 179.326 474.676C180.396 474.231 181.244 473.616 181.869 472.83C182.494 472.034 182.806 471.106 182.806 470.045C182.806 469.08 182.536 468.294 181.996 467.688C181.457 467.081 180.746 466.589 179.866 466.21C178.985 465.831 178.033 465.5 177.011 465.216L173.431 464.193C171.158 463.54 169.359 462.607 168.033 461.395C166.708 460.183 166.045 458.597 166.045 456.636C166.045 455.008 166.485 453.587 167.366 452.375C168.256 451.153 169.449 450.206 170.945 449.534C172.451 448.852 174.132 448.511 175.988 448.511C177.863 448.511 179.53 448.848 180.988 449.52C182.446 450.183 183.602 451.092 184.454 452.247C185.316 453.402 185.77 454.714 185.817 456.182H182.408ZM190.416 452.034V448.909H212.234V452.034H203.087V478H199.564V452.034H190.416ZM217.671 478V448.909H235.228V452.034H221.194V461.864H234.319V464.989H221.194V474.875H235.455V478H217.671ZM243.566 474.278C242.865 474.278 242.264 474.027 241.762 473.526C241.26 473.024 241.009 472.422 241.009 471.722C241.009 471.021 241.26 470.42 241.762 469.918C242.264 469.416 242.865 469.165 243.566 469.165C244.267 469.165 244.868 469.416 245.37 469.918C245.872 470.42 246.123 471.021 246.123 471.722C246.123 472.186 246.004 472.612 245.768 473C245.54 473.388 245.233 473.701 244.844 473.938C244.466 474.165 244.04 474.278 243.566 474.278ZM243.566 459.562C242.865 459.562 242.264 459.312 241.762 458.81C241.26 458.308 241.009 457.706 241.009 457.006C241.009 456.305 241.26 455.704 241.762 455.202C242.264 454.7 242.865 454.449 243.566 454.449C244.267 454.449 244.868 454.7 245.37 455.202C245.872 455.704 246.123 456.305 246.123 457.006C246.123 457.47 246.004 457.896 245.768 458.284C245.54 458.672 245.233 458.985 244.844 459.222C244.466 459.449 244.04 459.562 243.566 459.562Z" fill="black"/>
<path d="M679.239 549.909V579H675.716V553.602H675.545L668.443 558.318V554.739L675.716 549.909H679.239ZM687.605 579V576.443L697.207 565.932C698.334 564.701 699.262 563.631 699.991 562.722C700.721 561.803 701.26 560.941 701.611 560.136C701.971 559.322 702.151 558.47 702.151 557.58C702.151 556.557 701.904 555.671 701.412 554.923C700.929 554.175 700.266 553.598 699.423 553.19C698.58 552.783 697.634 552.58 696.582 552.58C695.465 552.58 694.49 552.812 693.656 553.276C692.832 553.73 692.193 554.369 691.739 555.193C691.294 556.017 691.071 556.983 691.071 558.091H687.719C687.719 556.386 688.112 554.89 688.898 553.602C689.684 552.314 690.754 551.311 692.108 550.591C693.472 549.871 695.001 549.511 696.696 549.511C698.401 549.511 699.911 549.871 701.227 550.591C702.544 551.311 703.576 552.281 704.324 553.503C705.072 554.724 705.446 556.083 705.446 557.58C705.446 558.65 705.252 559.696 704.864 560.719C704.485 561.732 703.822 562.864 702.875 564.114C701.938 565.354 700.635 566.869 698.969 568.659L692.435 575.648V575.875H705.957V579H687.605ZM712.335 579V549.909H715.858V575.875H729.381V579H712.335Z" fill="black"/>
<path d="M137.239 549.909V579H133.716V553.602H133.545L126.443 558.318V554.739L133.716 549.909H137.239Z" fill="black"/>
<path d="M679.239 615.909V645H675.716V619.602H675.545L668.443 624.318V620.739L675.716 615.909H679.239ZM687.605 645V642.443L697.207 631.932C698.334 630.701 699.262 629.631 699.991 628.722C700.721 627.803 701.26 626.941 701.611 626.136C701.971 625.322 702.151 624.47 702.151 623.58C702.151 622.557 701.904 621.671 701.412 620.923C700.929 620.175 700.266 619.598 699.423 619.19C698.58 618.783 697.634 618.58 696.582 618.58C695.465 618.58 694.49 618.812 693.656 619.276C692.832 619.73 692.193 620.369 691.739 621.193C691.294 622.017 691.071 622.983 691.071 624.091H687.719C687.719 622.386 688.112 620.89 688.898 619.602C689.684 618.314 690.754 617.311 692.108 616.591C693.472 615.871 695.001 615.511 696.696 615.511C698.401 615.511 699.911 615.871 701.227 616.591C702.544 617.311 703.576 618.281 704.324 619.503C705.072 620.724 705.446 622.083 705.446 623.58C705.446 624.65 705.252 625.696 704.864 626.719C704.485 627.732 703.822 628.864 702.875 630.114C701.938 631.354 700.635 632.869 698.969 634.659L692.435 641.648V641.875H705.957V645H687.605ZM712.335 645V615.909H722.165C724.438 615.909 726.303 616.297 727.761 617.074C729.22 617.841 730.299 618.897 731 620.241C731.701 621.586 732.051 623.116 732.051 624.83C732.051 626.544 731.701 628.063 731 629.389C730.299 630.715 729.224 631.757 727.776 632.514C726.327 633.262 724.475 633.636 722.222 633.636H714.267V630.455H722.108C723.661 630.455 724.911 630.227 725.858 629.773C726.814 629.318 727.506 628.674 727.932 627.841C728.367 626.998 728.585 625.994 728.585 624.83C728.585 623.665 728.367 622.647 727.932 621.776C727.496 620.904 726.8 620.232 725.844 619.759C724.887 619.276 723.623 619.034 722.051 619.034H715.858V645H712.335ZM726.028 631.932L733.188 645H729.097L722.051 631.932H726.028Z" fill="black"/>
<path d="M127.011 645V642.443L136.614 631.932C137.741 630.701 138.669 629.631 139.398 628.722C140.127 627.803 140.667 626.941 141.017 626.136C141.377 625.322 141.557 624.47 141.557 623.58C141.557 622.557 141.311 621.671 140.818 620.923C140.335 620.175 139.672 619.598 138.83 619.19C137.987 618.783 137.04 618.58 135.989 618.58C134.871 618.58 133.896 618.812 133.062 619.276C132.239 619.73 131.599 620.369 131.145 621.193C130.7 622.017 130.477 622.983 130.477 624.091H127.125C127.125 622.386 127.518 620.89 128.304 619.602C129.09 618.314 130.16 617.311 131.514 616.591C132.878 615.871 134.407 615.511 136.102 615.511C137.807 615.511 139.317 615.871 140.634 616.591C141.95 617.311 142.982 618.281 143.73 619.503C144.478 620.724 144.852 622.083 144.852 623.58C144.852 624.65 144.658 625.696 144.27 626.719C143.891 627.732 143.228 628.864 142.281 630.114C141.344 631.354 140.042 632.869 138.375 634.659L131.841 641.648V641.875H145.364V645H127.011Z" fill="black"/>
<rect x="1696" y="923" width="190" height="106" rx="50" fill="#EAEAEA"/>
<path d="M1749.47 991V961.909H1767.03V965.034H1752.99V974.864H1766.12V977.989H1752.99V987.875H1767.26V991H1749.47ZM1789.29 969.182C1789.12 967.742 1788.43 966.625 1787.21 965.83C1786 965.034 1784.51 964.636 1782.75 964.636C1781.47 964.636 1780.34 964.845 1779.37 965.261C1778.42 965.678 1777.67 966.251 1777.13 966.98C1776.6 967.709 1776.33 968.538 1776.33 969.466C1776.33 970.242 1776.52 970.91 1776.89 971.469C1777.27 972.018 1777.75 972.477 1778.34 972.847C1778.92 973.206 1779.54 973.505 1780.18 973.741C1780.83 973.969 1781.42 974.153 1781.96 974.295L1784.91 975.091C1785.67 975.29 1786.51 975.564 1787.44 975.915C1788.38 976.265 1789.27 976.743 1790.13 977.349C1790.99 977.946 1791.7 978.713 1792.26 979.651C1792.81 980.588 1793.09 981.739 1793.09 983.102C1793.09 984.674 1792.68 986.095 1791.86 987.364C1791.04 988.633 1789.85 989.641 1788.28 990.389C1786.72 991.137 1784.82 991.511 1782.58 991.511C1780.5 991.511 1778.7 991.175 1777.17 990.503C1775.66 989.83 1774.46 988.893 1773.59 987.69C1772.73 986.488 1772.24 985.091 1772.13 983.5H1775.76C1775.86 984.598 1776.23 985.508 1776.87 986.227C1777.53 986.937 1778.35 987.468 1779.34 987.818C1780.35 988.159 1781.43 988.33 1782.58 988.33C1783.93 988.33 1785.13 988.112 1786.2 987.676C1787.27 987.231 1788.12 986.616 1788.75 985.83C1789.37 985.034 1789.69 984.106 1789.69 983.045C1789.69 982.08 1789.42 981.294 1788.88 980.688C1788.34 980.081 1787.63 979.589 1786.74 979.21C1785.86 978.831 1784.91 978.5 1783.89 978.216L1780.31 977.193C1778.04 976.54 1776.24 975.607 1774.91 974.395C1773.59 973.183 1772.92 971.597 1772.92 969.636C1772.92 968.008 1773.36 966.587 1774.24 965.375C1775.13 964.153 1776.33 963.206 1777.82 962.534C1779.33 961.852 1781.01 961.511 1782.87 961.511C1784.74 961.511 1786.41 961.848 1787.87 962.52C1789.33 963.183 1790.48 964.092 1791.33 965.247C1792.19 966.402 1792.65 967.714 1792.7 969.182H1789.29ZM1822.3 971H1818.77C1818.56 969.987 1818.2 969.097 1817.68 968.33C1817.17 967.562 1816.54 966.919 1815.8 966.398C1815.07 965.867 1814.26 965.47 1813.37 965.205C1812.48 964.939 1811.56 964.807 1810.59 964.807C1808.83 964.807 1807.23 965.252 1805.8 966.142C1804.38 967.032 1803.25 968.344 1802.41 970.077C1801.58 971.81 1801.16 973.936 1801.16 976.455C1801.16 978.973 1801.58 981.099 1802.41 982.832C1803.25 984.565 1804.38 985.877 1805.8 986.767C1807.23 987.657 1808.83 988.102 1810.59 988.102C1811.56 988.102 1812.48 987.97 1813.37 987.705C1814.26 987.439 1815.07 987.046 1815.8 986.526C1816.54 985.995 1817.17 985.347 1817.68 984.58C1818.2 983.803 1818.56 982.913 1818.77 981.909H1822.3C1822.03 983.396 1821.55 984.726 1820.85 985.901C1820.15 987.075 1819.27 988.074 1818.23 988.898C1817.19 989.712 1816.02 990.332 1814.72 990.759C1813.44 991.185 1812.06 991.398 1810.59 991.398C1808.11 991.398 1805.9 990.792 1803.97 989.58C1802.04 988.367 1800.52 986.644 1799.41 984.409C1798.3 982.174 1797.75 979.523 1797.75 976.455C1797.75 973.386 1798.3 970.735 1799.41 968.5C1800.52 966.265 1802.04 964.542 1803.97 963.33C1805.9 962.117 1808.11 961.511 1810.59 961.511C1812.06 961.511 1813.44 961.724 1814.72 962.151C1816.02 962.577 1817.19 963.202 1818.23 964.026C1819.27 964.84 1820.15 965.834 1820.85 967.009C1821.55 968.173 1822.03 969.504 1822.3 971ZM1831.51 961.909V991H1827.99V961.909H1831.51Z" fill="black"/>
<path d="M93.1136 124V77.4545H109.705C113.326 77.4545 116.326 78.1136 118.705 79.4318C121.083 80.75 122.864 82.553 124.045 84.8409C125.227 87.1136 125.818 89.6742 125.818 92.5227C125.818 95.3864 125.22 97.9621 124.023 100.25C122.841 102.523 121.053 104.326 118.659 105.659C116.28 106.977 113.288 107.636 109.682 107.636H98.2727V101.682H109.045C111.333 101.682 113.189 101.288 114.614 100.5C116.038 99.697 117.083 98.6061 117.75 97.2273C118.417 95.8485 118.75 94.2803 118.75 92.5227C118.75 90.7652 118.417 89.2045 117.75 87.8409C117.083 86.4773 116.03 85.4091 114.591 84.6364C113.167 83.8636 111.288 83.4773 108.955 83.4773H100.136V124H93.1136ZM134.051 124V77.4545H150.642C154.248 77.4545 157.241 78.0758 159.619 79.3182C162.013 80.5606 163.801 82.2803 164.983 84.4773C166.165 86.6591 166.756 89.1818 166.756 92.0455C166.756 94.8939 166.157 97.4015 164.96 99.5682C163.778 101.72 161.991 103.394 159.597 104.591C157.218 105.788 154.225 106.386 150.619 106.386H138.051V100.341H149.983C152.256 100.341 154.104 100.015 155.528 99.3636C156.968 98.7121 158.021 97.7652 158.688 96.5227C159.354 95.2803 159.688 93.7879 159.688 92.0455C159.688 90.2879 159.347 88.7651 158.665 87.4773C157.998 86.1894 156.945 85.2045 155.506 84.5227C154.081 83.8258 152.21 83.4773 149.892 83.4773H141.074V124H134.051ZM157.028 103L168.528 124H160.528L149.256 103H157.028ZM215.733 100.727C215.733 105.697 214.824 109.97 213.006 113.545C211.188 117.106 208.695 119.848 205.528 121.773C202.377 123.682 198.794 124.636 194.778 124.636C190.748 124.636 187.15 123.682 183.983 121.773C180.831 119.848 178.347 117.098 176.528 113.523C174.71 109.947 173.801 105.682 173.801 100.727C173.801 95.7576 174.71 91.4924 176.528 87.9318C178.347 84.3561 180.831 81.6136 183.983 79.7045C187.15 77.7803 190.748 76.8182 194.778 76.8182C198.794 76.8182 202.377 77.7803 205.528 79.7045C208.695 81.6136 211.188 84.3561 213.006 87.9318C214.824 91.4924 215.733 95.7576 215.733 100.727ZM208.778 100.727C208.778 96.9394 208.165 93.75 206.938 91.1591C205.725 88.553 204.059 86.5833 201.938 85.25C199.831 83.9015 197.445 83.2273 194.778 83.2273C192.097 83.2273 189.703 83.9015 187.597 85.25C185.491 86.5833 183.824 88.553 182.597 91.1591C181.384 93.75 180.778 96.9394 180.778 100.727C180.778 104.515 181.384 107.712 182.597 110.318C183.824 112.909 185.491 114.879 187.597 116.227C189.703 117.561 192.097 118.227 194.778 118.227C197.445 118.227 199.831 117.561 201.938 116.227C204.059 114.879 205.725 112.909 206.938 110.318C208.165 107.712 208.778 104.515 208.778 100.727ZM224.489 124V77.4545H253.352V83.5H231.511V97.6818H251.284V103.705H231.511V124H224.489ZM269.011 77.4545V124H261.989V77.4545H269.011ZM279.239 124V77.4545H286.261V117.955H307.352V124H279.239ZM353.983 100.727C353.983 105.697 353.074 109.97 351.256 113.545C349.438 117.106 346.945 119.848 343.778 121.773C340.627 123.682 337.044 124.636 333.028 124.636C328.998 124.636 325.4 123.682 322.233 121.773C319.081 119.848 316.597 117.098 314.778 113.523C312.96 109.947 312.051 105.682 312.051 100.727C312.051 95.7576 312.96 91.4924 314.778 87.9318C316.597 84.3561 319.081 81.6136 322.233 79.7045C325.4 77.7803 328.998 76.8182 333.028 76.8182C337.044 76.8182 340.627 77.7803 343.778 79.7045C346.945 81.6136 349.438 84.3561 351.256 87.9318C353.074 91.4924 353.983 95.7576 353.983 100.727ZM347.028 100.727C347.028 96.9394 346.415 93.75 345.188 91.1591C343.975 88.553 342.309 86.5833 340.188 85.25C338.081 83.9015 335.695 83.2273 333.028 83.2273C330.347 83.2273 327.953 83.9015 325.847 85.25C323.741 86.5833 322.074 88.553 320.847 91.1591C319.634 93.75 319.028 96.9394 319.028 100.727C319.028 104.515 319.634 107.712 320.847 110.318C322.074 112.909 323.741 114.879 325.847 116.227C327.953 117.561 330.347 118.227 333.028 118.227C335.695 118.227 338.081 117.561 340.188 116.227C342.309 114.879 343.975 112.909 345.188 110.318C346.415 107.712 347.028 104.515 347.028 100.727ZM383.608 124H376.153L392.903 77.4545H401.017L417.767 124H410.312L397.153 85.9091H396.79L383.608 124ZM384.858 105.773H409.04V111.682H384.858V105.773ZM424.489 124V77.4545H453.67V83.5H431.511V97.6818H452.148V103.705H431.511V117.955H453.943V124H424.489ZM463.051 124V77.4545H479.642C483.248 77.4545 486.241 78.0758 488.619 79.3182C491.013 80.5606 492.801 82.2803 493.983 84.4773C495.165 86.6591 495.756 89.1818 495.756 92.0455C495.756 94.8939 495.157 97.4015 493.96 99.5682C492.778 101.72 490.991 103.394 488.597 104.591C486.218 105.788 483.225 106.386 479.619 106.386H467.051V100.341H478.983C481.256 100.341 483.104 100.015 484.528 99.3636C485.968 98.7121 487.021 97.7652 487.688 96.5227C488.354 95.2803 488.688 93.7879 488.688 92.0455C488.688 90.2879 488.347 88.7651 487.665 87.4773C486.998 86.1894 485.945 85.2045 484.506 84.5227C483.081 83.8258 481.21 83.4773 478.892 83.4773H470.074V124H463.051ZM486.028 103L497.528 124H489.528L478.256 103H486.028ZM544.733 100.727C544.733 105.697 543.824 109.97 542.006 113.545C540.188 117.106 537.695 119.848 534.528 121.773C531.377 123.682 527.794 124.636 523.778 124.636C519.748 124.636 516.15 123.682 512.983 121.773C509.831 119.848 507.347 117.098 505.528 113.523C503.71 109.947 502.801 105.682 502.801 100.727C502.801 95.7576 503.71 91.4924 505.528 87.9318C507.347 84.3561 509.831 81.6136 512.983 79.7045C516.15 77.7803 519.748 76.8182 523.778 76.8182C527.794 76.8182 531.377 77.7803 534.528 79.7045C537.695 81.6136 540.188 84.3561 542.006 87.9318C543.824 91.4924 544.733 95.7576 544.733 100.727ZM537.778 100.727C537.778 96.9394 537.165 93.75 535.938 91.1591C534.725 88.553 533.059 86.5833 530.938 85.25C528.831 83.9015 526.445 83.2273 523.778 83.2273C521.097 83.2273 518.703 83.9015 516.597 85.25C514.491 86.5833 512.824 88.553 511.597 91.1591C510.384 93.75 509.778 96.9394 509.778 100.727C509.778 104.515 510.384 107.712 511.597 110.318C512.824 112.909 514.491 114.879 516.597 116.227C518.703 117.561 521.097 118.227 523.778 118.227C526.445 118.227 528.831 117.561 530.938 116.227C533.059 114.879 534.725 112.909 535.938 110.318C537.165 107.712 537.778 104.515 537.778 100.727ZM553.489 124V77.4545H570.08C573.701 77.4545 576.701 78.1136 579.08 79.4318C581.458 80.75 583.239 82.553 584.42 84.8409C585.602 87.1136 586.193 89.6742 586.193 92.5227C586.193 95.3864 585.595 97.9621 584.398 100.25C583.216 102.523 581.428 104.326 579.034 105.659C576.655 106.977 573.663 107.636 570.057 107.636H558.648V101.682H569.42C571.708 101.682 573.564 101.288 574.989 100.5C576.413 99.697 577.458 98.6061 578.125 97.2273C578.792 95.8485 579.125 94.2803 579.125 92.5227C579.125 90.7652 578.792 89.2045 578.125 87.8409C577.458 86.4773 576.405 85.4091 574.966 84.6364C573.542 83.8636 571.663 83.4773 569.33 83.4773H560.511V124H553.489ZM634.858 100.727C634.858 105.697 633.949 109.97 632.131 113.545C630.313 117.106 627.82 119.848 624.653 121.773C621.502 123.682 617.919 124.636 613.903 124.636C609.873 124.636 606.275 123.682 603.108 121.773C599.956 119.848 597.472 117.098 595.653 113.523C593.835 109.947 592.926 105.682 592.926 100.727C592.926 95.7576 593.835 91.4924 595.653 87.9318C597.472 84.3561 599.956 81.6136 603.108 79.7045C606.275 77.7803 609.873 76.8182 613.903 76.8182C617.919 76.8182 621.502 77.7803 624.653 79.7045C627.82 81.6136 630.313 84.3561 632.131 87.9318C633.949 91.4924 634.858 95.7576 634.858 100.727ZM627.903 100.727C627.903 96.9394 627.29 93.75 626.062 91.1591C624.85 88.553 623.184 86.5833 621.062 85.25C618.956 83.9015 616.57 83.2273 613.903 83.2273C611.222 83.2273 608.828 83.9015 606.722 85.25C604.616 86.5833 602.949 88.553 601.722 91.1591C600.509 93.75 599.903 96.9394 599.903 100.727C599.903 104.515 600.509 107.712 601.722 110.318C602.949 112.909 604.616 114.879 606.722 116.227C608.828 117.561 611.222 118.227 613.903 118.227C616.57 118.227 618.956 117.561 621.062 116.227C623.184 114.879 624.85 112.909 626.062 110.318C627.29 107.712 627.903 104.515 627.903 100.727ZM643.614 124V77.4545H660.205C663.811 77.4545 666.803 78.0758 669.182 79.3182C671.576 80.5606 673.364 82.2803 674.545 84.4773C675.727 86.6591 676.318 89.1818 676.318 92.0455C676.318 94.8939 675.72 97.4015 674.523 99.5682C673.341 101.72 671.553 103.394 669.159 104.591C666.78 105.788 663.788 106.386 660.182 106.386H647.614V100.341H659.545C661.818 100.341 663.667 100.015 665.091 99.3636C666.53 98.7121 667.583 97.7652 668.25 96.5227C668.917 95.2803 669.25 93.7879 669.25 92.0455C669.25 90.2879 668.909 88.7651 668.227 87.4773C667.561 86.1894 666.508 85.2045 665.068 84.5227C663.644 83.8258 661.773 83.4773 659.455 83.4773H650.636V124H643.614ZM666.591 103L678.091 124H670.091L658.818 103H666.591ZM682.568 83.5V77.4545H718.591V83.5H704.068V124H697.068V83.5H682.568ZM764.983 100.727C764.983 105.697 764.074 109.97 762.256 113.545C760.438 117.106 757.945 119.848 754.778 121.773C751.627 123.682 748.044 124.636 744.028 124.636C739.998 124.636 736.4 123.682 733.233 121.773C730.081 119.848 727.597 117.098 725.778 113.523C723.96 109.947 723.051 105.682 723.051 100.727C723.051 95.7576 723.96 91.4924 725.778 87.9318C727.597 84.3561 730.081 81.6136 733.233 79.7045C736.4 77.7803 739.998 76.8182 744.028 76.8182C748.044 76.8182 751.627 77.7803 754.778 79.7045C757.945 81.6136 760.438 84.3561 762.256 87.9318C764.074 91.4924 764.983 95.7576 764.983 100.727ZM758.028 100.727C758.028 96.9394 757.415 93.75 756.188 91.1591C754.975 88.553 753.309 86.5833 751.188 85.25C749.081 83.9015 746.695 83.2273 744.028 83.2273C741.347 83.2273 738.953 83.9015 736.847 85.25C734.741 86.5833 733.074 88.553 731.847 91.1591C730.634 93.75 730.028 96.9394 730.028 100.727C730.028 104.515 730.634 107.712 731.847 110.318C733.074 112.909 734.741 114.879 736.847 116.227C738.953 117.561 741.347 118.227 744.028 118.227C746.695 118.227 749.081 117.561 751.188 116.227C753.309 114.879 754.975 112.909 756.188 110.318C757.415 107.712 758.028 104.515 758.028 100.727Z" fill="black"/>
<rect x="0.5" y="0.5" width="1919" height="1079" stroke="black"/>
</svg>
